<svg xmlns="http://www.w3.org/2000/svg" viewBox="0 0 1200 300" role="img" aria-label="UFC · MMA · Boxe">
<defs>
<linearGradient id="bg" x1="0" y1="0" x2="1" y2="1">
<stop offset="0" stop-color="#0a0f28"/><stop offset="1" stop-color="#131b3f"/></linearGradient>
<radialGradient id="glow" cx=".18" cy="-.1" r=".9">
<stop offset="0" stop-color="#deb23e" stop-opacity=".16"/><stop offset="1" stop-color="#deb23e" stop-opacity="0"/></radialGradient>
<radialGradient id="bzg" cx=".35" cy=".3" r=".8">
<stop offset="0" stop-color="#1b2a6b"/><stop offset="1" stop-color="#0a0f28"/></radialGradient>
</defs>
<rect width="1200" height="300" rx="18" fill="url(#bg)"/>
<rect width="1200" height="300" rx="18" fill="url(#glow)"/>
<path d="M744 48 l21 42 l-12 0 l18 42 l-42 -46 l13 0 Z" fill="#ff5c5c" fill-opacity="0.30"/>
<path d="M834 48 l21 42 l-12 0 l18 42 l-42 -46 l13 0 Z" fill="#ff5c5c" fill-opacity="0.26"/>
<path d="M924 48 l21 42 l-12 0 l18 42 l-42 -46 l13 0 Z" fill="#ff5c5c" fill-opacity="0.21"/>
<path d="M1014 48 l21 42 l-12 0 l18 42 l-42 -46 l13 0 Z" fill="#ff5c5c" fill-opacity="0.16"/>
<path d="M1104 48 l21 42 l-12 0 l18 42 l-42 -46 l13 0 Z" fill="#ff5c5c" fill-opacity="0.12"/>
<circle cx="78" cy="150.0" r="34" fill="url(#bzg)" stroke="#deb23e" stroke-width="3.1"/><text x="78" y="160" text-anchor="middle" fill="#deb23e" font-family="Space Grotesk,Inter,sans-serif" font-weight="700" font-size="28">BZ</text>
<text x="132" y="144" fill="#eef0f7" font-family="Space Grotesk,Inter,sans-serif"
      font-weight="700" font-size="34" letter-spacing="-0.5">UFC · MMA · Boxe</text>
<text x="132" y="176" fill="#9aa3c0" font-family="Inter,sans-serif"
      font-size="17" letter-spacing="1.6">BETZONE · 18+</text>
<rect x="132" y="190" width="86" height="4" rx="2" fill="#deb23e"/>
<rect width="1200" height="300" rx="18" fill="none" stroke="#222b57" stroke-width="2"/>
</svg>